<svg xmlns="http://www.w3.org/2000/svg" viewBox="0 0 286.33 286.33"><defs><style>.cls-1{fill:#ef0303;}.cls-2{fill:#fcdf12;}</style></defs><title>Element 6</title><g id="Layer_2" data-name="Layer 2"><g id="Homepage_Phone"><circle class="cls-1" cx="143.16" cy="143.16" r="28.66"/><path class="cls-2" d="M36.19,282.67a26.62,26.62,0,0,1-3.62-.24c-8.22-1.11-13.85-6.16-15.85-14.22-5.93-23.93,20.24-71,91.73-123.16C31.73,101,.6,57,3.9,32.57,5,24.35,10.06,18.71,18.12,16.72c23.93-5.94,71,20.24,123.16,91.73C185.34,31.73,229.32.58,253.76,3.9,262,5,267.61,10.06,269.61,18.12c5.93,23.92-20.24,71-91.73,123.15,76.72,44.07,107.85,88.06,104.55,112.48-1.11,8.23-6.16,13.86-14.22,15.86-23.93,5.92-71-20.24-123.16-91.73C103.09,251,61.19,282.66,36.19,282.67ZM25.13,22.5a22.59,22.59,0,0,0-5.42.62c-5.41,1.34-8.53,4.82-9.27,10.34C9,44.39,16.77,60.55,31.85,77.79c18.82,21.51,48,43.66,84.31,64.05l4.53,2.55-4.23,3C82.55,171.62,56,196.8,39.6,220.22,26.47,239,20.47,255.91,23.12,266.62c1.34,5.41,4.82,8.53,10.34,9.27,10.93,1.49,27.09-6.33,44.33-21.42,21.51-18.81,43.66-48,64.06-84.3l2.54-4.53,3,4.23c24.21,33.91,49.39,60.48,72.81,76.86,18.78,13.12,35.69,19.13,46.4,16.48,5.41-1.34,8.53-4.82,9.27-10.34,1.48-10.93-6.33-27.09-21.42-44.34-18.81-21.5-48-43.65-84.3-64.05l-4.53-2.54,4.23-3c33.91-24.22,60.48-49.4,76.86-72.82,13.13-18.77,19.13-35.69,16.48-46.39-1.34-5.41-4.82-8.53-10.34-9.27C241.94,9,225.78,16.77,208.54,31.85c-21.51,18.82-43.66,48-64.06,84.31l-2.54,4.53-3-4.23C114.71,82.55,89.52,56,66.11,39.6,50.24,28.51,35.72,22.5,25.13,22.5Z"/><path class="cls-2" d="M266.18,270.41c-24.58,4-70.49-22.61-121.09-91.84C101,255.07,57,286.1,32.52,282.8c-8.39-1.13-14.13-6.28-16.17-14.5-6-24,20.13-71.12,91.41-123.21C31.25,101,.21,57,3.52,32.52,4.66,24.13,9.81,18.39,18,16.35c24-5.91,71.12,20.13,123.21,91.4C185.29,31.25,229.31.21,253.81,3.52,262.2,4.66,267.94,9.81,270,18c5.95,24-20.13,71.11-91.41,123.21,76.51,44,107.54,88.07,104.24,112.57-1.14,8.39-6.29,14.13-14.51,16.17C267.61,270.15,266.9,270.29,266.18,270.41ZM144.35,164.94l3.36,4.71c54.61,76.44,101,97.59,118.82,93.19,5.24-1.3,8.26-4.67,9-10,2.46-18.22-23.61-62-105.53-108L164.94,142l4.71-3.36C246.1,84,267.26,37.64,262.84,19.8c-1.3-5.24-4.67-8.27-10-9-18.21-2.47-62,23.61-108,105.53l-2.83,5-3.36-4.71C84,40.23,37.66,19.1,19.8,23.49c-5.24,1.3-8.27,4.67-9,10-2.46,18.22,23.61,62,105.53,108l5,2.83-4.71,3.36c-76.45,54.61-97.62,101-93.19,118.82,1.3,5.24,4.67,8.26,10,9,18.21,2.46,62-23.61,108-105.53Z"/><path class="cls-2" d="M36,286.33a29.14,29.14,0,0,1-3.93-.26c-9.68-1.31-16.58-7.49-18.93-17-5.6-22.61,14.41-68.35,88.61-123.67C22,98.47-2.86,55.17.26,32.08c1.3-9.68,7.49-16.58,17-18.93C39.86,7.56,85.62,27.6,140.91,101.76,187.86,22,231.18-2.85,254.25.25a21.7,21.7,0,0,1,18.93,17c5.6,22.62-14.41,68.36-88.61,123.68,79.76,47,104.62,90.25,101.5,113.34-1.31,9.68-7.49,16.58-17,18.93-.77.19-1.57.35-2.39.49h0c-22.74,3.68-67.94-17.59-121.28-89.1C101,260,59.88,286.33,36,286.33ZM25.33,18.81a27.25,27.25,0,0,0-6.51.74C11.91,21.27,7.75,25.9,6.79,33,3.66,56.14,34.17,98.91,109.4,142.23l4.39,2.53-4.09,3C39.62,199,13.93,244.81,19.55,267.51c1.72,6.91,6.36,11.07,13.41,12,23.2,3.15,66-27.39,109.27-102.6l2.53-4.39,3,4.09c49.49,67.71,94.89,94.26,117.9,90.52h0c.63-.1,1.26-.22,1.86-.37,6.91-1.72,11.07-6.36,12-13.42,3.13-23.17-27.39-66-102.61-109.26l-4.39-2.53,4.09-3c70.08-51.23,95.77-97.06,90.15-119.76-1.72-6.91-6.36-11.07-13.41-12-23.17-3.14-66,27.39-109.27,102.61l-2.53,4.39-3-4.09C91.88,45.81,49.63,18.81,25.33,18.81ZM36,279a23.3,23.3,0,0,1-2.94-.19c-6.73-.91-11.15-4.88-12.78-11.46-2.8-11.28,3.31-28.88,16.76-48.3,16.56-23.93,43.44-49.52,77.71-74l.49-.35-.52-.29C78,123.77,48.51,101.25,29.44,79.26,14,61.41,6,44.57,7.54,33.07,8.45,26.34,12.41,21.92,19,20.29c11.29-2.77,28.9,3.34,48.3,16.77,23.93,16.56,49.52,43.43,74,77.7l.35.49.29-.52C162.56,78,185.08,48.5,207.07,29.44,224.92,14,241.77,6,253.26,7.54,260,8.45,264.41,12.41,266,19c2.8,11.28-3.31,28.88-16.76,48.3-16.56,23.93-43.44,49.52-77.71,74l-.49.35.52.28c36.73,20.63,66.22,43.15,85.29,65.14,15.47,17.85,23.45,34.68,21.9,46.19-.91,6.73-4.88,11.15-11.46,12.78-11.27,2.79-28.87-3.33-48.29-16.77-23.94-16.57-49.53-43.44-74-77.7l-.35-.49-.29.52c-20.62,36.73-43.14,66.23-65.13,85.29C62.88,271.09,47.35,279,36,279ZM24.8,26.23a18,18,0,0,0-4.22.46c-3.89,1-6,3.27-6.5,7.26C11.83,50.61,38,93.77,118,138.64l9.57,5.38-8.93,6.38c-74.58,53.27-96,99-91.91,115.34,1,3.9,3.27,6,7.26,6.51,16.65,2.28,59.82-24,104.69-103.88L144,158.8l6.39,8.93c53.25,74.56,99,95.93,115.34,91.91,3.9-1,6-3.27,6.51-7.26,2.25-16.67-24-59.83-103.88-104.69l-9.57-5.38,8.93-6.38c74.58-53.27,96-99,91.91-115.34-1-3.9-3.27-6-7.26-6.51C235.72,11.81,192.56,38,147.69,118l-5.38,9.57-6.38-8.93C86.74,49.73,43.92,26.23,24.8,26.23Z"/></g></g></svg>