<svg xmlns="http://www.w3.org/2000/svg" viewBox="0 0 327.83 327.83"><defs><style>.cls-1{fill:#ef0303;}.cls-2{fill:#fcdf12;}.cls-3{fill:#ffd400;}</style></defs><title>Element 5</title><g id="Layer_2" data-name="Layer 2"><g id="Homepage_Phone"><circle class="cls-1" cx="163.91" cy="163.91" r="156.61"/><path class="cls-2" d="M166.42,320.54l-6.65,0c.19-36.17-17.17-74.57-47.64-105.35S43.45,166.61,7.28,166.42l0-6.64H7.9C83.65,159.78,161,83,161.41,7.28l6.64,0c-.19,36.17,17.18,74.57,47.64,105.35s68.68,48.55,104.85,48.74l0,6.64h-.58C244.18,168.05,166.81,244.81,166.42,320.54ZM35.84,163.25c28.76,6.76,57.21,23.17,81,47.23s39.92,52.68,46.39,81.5c6.76-28.75,23.17-57.2,47.23-81s52.68-39.92,81.5-46.39c-28.75-6.76-57.2-23.18-81-47.23S171,64.67,164.58,35.84c-6.76,28.76-23.18,57.21-47.24,81S64.67,156.78,35.84,163.25Z"/><path class="cls-3" d="M163.1,324.5h0a4,4,0,0,1-4-4v0c.19-36-17.11-74.23-47.45-104.89S43.28,167.26,7.28,167.08a4,4,0,0,1-4-4v0a4,4,0,0,1,4-4h.6c75.43,0,152.46-76.42,152.85-151.84a4,4,0,0,1,4-4h0a4,4,0,0,1,4,4v0c-.4,75.61,76.23,153,151.84,153.43a4,4,0,0,1,3.95,4v0a4,4,0,0,1-4,4c-.22,0-.41,0-.61,0-75.42,0-152.45,76.43-152.85,151.84A4,4,0,0,1,163.1,324.5ZM38.65,163.26c28,7.16,55.51,23.36,78.67,46.76s39.07,51.12,45.94,79.16c7.16-28,23.36-55.51,46.76-78.68s51.12-39.07,79.16-45.93c-28-7.16-55.51-23.36-78.68-46.76s-39.07-51.12-45.93-79.16c-7.16,28-23.36,55.51-46.76,78.67S66.69,156.4,38.65,163.26Z"/><path class="cls-2" d="M163.1,327.83h0a7.32,7.32,0,0,1-7.28-7.29C156,285.37,139,248,109.31,218s-66.93-47.38-102-47.56a7.3,7.3,0,0,1,0-14.6h.6c73.68,0,149.15-75,149.53-148.54a7.3,7.3,0,0,1,14.6,0c-.39,74,74.58,149.75,148.53,150.14a7.3,7.3,0,0,1,0,14.6h-.61c-73.68,0-149.14,75-149.52,148.53A7.32,7.32,0,0,1,163.1,327.83ZM7.27,162.44a.66.66,0,0,0,0,1.31C44.17,163.94,83.07,182,114,213.28s48.6,70.37,48.41,107.24a.65.65,0,0,0,.65.66v0a.65.65,0,0,0,.65-.65C163.94,283.72,181.9,244.89,213,214s70.07-48.61,106.9-48.61h.71a.66.66,0,0,0-.1-1.31C243.28,163.67,165,84.55,165.38,7.3a.65.65,0,0,0-.65-.65.66.66,0,0,0-.66.65c-.19,36.81-18.15,75.64-49.27,106.54s-70.07,48.6-106.9,48.6ZM163.19,302.86,160,290c-6.82-27.87-22.41-54.71-45.07-77.61S65.62,173.6,37.82,166.48L25,163.19,37.86,160c27.87-6.83,54.71-22.42,77.61-45.08s38.76-49.33,45.88-77.14L164.64,25l3.15,12.9c6.83,27.87,22.42,54.71,45.08,77.61S262.2,154.23,290,161.35l12.86,3.29L290,167.79c-27.87,6.83-54.71,22.42-77.61,45.08S173.6,262.2,166.48,290ZM50.51,163.32c24.95,8.46,48.67,23.64,69.17,44.36s35.44,44.61,43.64,69.64c8.46-24.95,23.65-48.68,44.36-69.18s44.6-35.43,69.64-43.63c-24.95-8.47-48.67-23.65-69.18-44.36S172.7,75.54,164.5,50.51c-8.46,24.95-23.64,48.67-44.36,69.18S75.54,155.12,50.51,163.32Z"/></g></g></svg>