<svg xmlns="http://www.w3.org/2000/svg" viewBox="0 0 383.3 383.3"><defs><style>.cls-1{fill:none;stroke:red;stroke-miterlimit:10;stroke-width:5px;}</style></defs><title>Element 8</title><g id="Layer_2" data-name="Layer 2"><g id="Homepage_Phone"><circle class="cls-1" cx="191.65" cy="191.65" r="180.73"/><path class="cls-1" d="M194.54,372.4l-7.66,0c.21-41.74-19.83-86.05-55-121.57s-79.26-56-121-56.24l0-7.67h.68c87.41,0,176.68-88.57,177.14-176l7.67,0c-.22,41.73,19.82,86,55,121.57s79.26,56,121,56.24l0,7.67h-.67C284.28,196.43,195,285,194.54,372.4ZM43.86,190.88c33.19,7.81,66,26.75,93.49,54.51s46.07,60.79,53.53,94.05c7.81-33.18,26.75-66,54.51-93.49s60.79-46.07,94.05-53.53c-33.18-7.8-66-26.74-93.49-54.51s-46.07-60.78-53.53-94c-7.8,33.19-26.75,66-54.51,93.49S77.12,183.42,43.86,190.88Z"/><path class="cls-1" d="M190.71,377h0a4.59,4.59,0,0,1-4.57-4.59v0c.22-41.54-19.74-85.66-54.76-121s-78.92-55.8-120.46-56a4.6,4.6,0,0,1-4.57-4.58v0a4.6,4.6,0,0,1,4.6-4.57h.69c87,0,175.93-88.19,176.38-175.22a4.58,4.58,0,0,1,4.59-4.56h0a4.58,4.58,0,0,1,4.56,4.58v0c-.45,87.24,88,176.6,175.22,177.05a4.6,4.6,0,0,1,4.57,4.59v0a4.59,4.59,0,0,1-4.59,4.57h-.7c-87,0-175.93,88.2-176.38,175.22A4.59,4.59,0,0,1,190.71,377ZM47.1,190.9c32.27,8.26,64.06,26.95,90.79,54s45.09,59,53,91.35c8.26-32.28,26.95-64.07,54-90.79s59-45.09,91.35-53c-32.28-8.26-64.07-27-90.79-54s-45.09-59-53-91.35c-8.26,32.27-27,64.06-54,90.79S79.45,183,47.1,190.9Z"/><path class="cls-1" d="M190.71,380.8h0a8.45,8.45,0,0,1-8.41-8.41c.22-40.58-19.34-83.71-53.64-118.37S51.41,199.35,10.88,199.14a8.43,8.43,0,0,1,0-16.85h.69c85,0,172.11-86.51,172.55-171.41a8.43,8.43,0,0,1,16.85,0c-.45,85.39,86.06,172.8,171.4,173.25a8.43,8.43,0,0,1,0,16.85h-.7c-85,0-172.1,86.5-172.54,171.4A8.45,8.45,0,0,1,190.71,380.8ZM10.89,190a.74.74,0,0,0-.72.75.76.76,0,0,0,.75.76c42.55.22,87.44,21.05,123.17,57.15S190.18,329.83,190,372.38a.76.76,0,0,0,.75.75v0a.76.76,0,0,0,.76-.75c.22-42.47,20.94-87.28,56.85-122.94s80.86-56.09,123.36-56.09h.82a.74.74,0,0,0,.63-.75.75.75,0,0,0-.75-.76c-89.14-.47-179.5-91.77-179-180.91a.76.76,0,0,0-1.51,0c-.22,42.48-21,87.29-56.86,123S54.12,190,11.62,190ZM190.82,352l-3.65-14.88c-7.87-32.17-25.86-63.14-52-89.56s-56.93-44.73-89-52.94l-14.84-3.8,14.87-3.64c32.17-7.88,63.14-25.87,89.57-52s44.73-56.93,52.94-89l3.8-14.83,3.64,14.87c7.88,32.17,25.86,63.14,52,89.57s56.93,44.73,89,52.94l14.83,3.8-14.87,3.64C305,204,274,222,247.56,248.14s-44.73,56.93-52.95,89Zm-130-161c28.79,9.76,56.17,27.28,79.83,51.19s40.9,51.47,50.36,80.36c9.76-28.79,27.28-56.17,51.19-79.83s51.47-40.89,80.36-50.35c-28.79-9.77-56.17-27.29-79.83-51.2S201.8,89.68,192.33,60.78c-9.76,28.8-27.28,56.17-51.19,79.83S89.67,181.51,60.78,191Z"/></g></g></svg>