<svg xmlns="http://www.w3.org/2000/svg" viewBox="0 0 339.8 340.37"><defs><style>.cls-1{fill:red;}</style></defs><title>Element 7</title><g id="Layer_2" data-name="Layer 2"><g id="Homepage_Phone"><path class="cls-1" d="M331.11,136.3c-4.3-37.74-47.42-70.17-96.32-59.88C232,35.06,195.25,4.64,156.44,8.68c-36,3.74-64.58,36.13-63.45,74.43C48,79.52,11,112,8.47,149.17,6.5,177.91,25.31,207,55.53,220c-21.71,32.58-14.85,75.37,12.4,97.34C98.8,342.25,149.46,335.28,174.18,298c29.8,38.55,84.71,40,112.39,11.42,23.78-24.58,25.36-69.16-1.6-100.18C315.88,194.67,334.32,164.42,331.11,136.3Z"/><path class="cls-1" d="M110.9,335.79a72,72,0,0,1-45.32-15.51c-28.6-23.06-35-65.64-15.48-98.64C21.23,207.37,2.74,178,4.73,148.92,6,130.61,15.4,112.61,30.56,99.54a84.54,84.54,0,0,1,58.67-20.4C90.09,41,118.74,8.84,156.05,5c19.48-2,39.56,4.31,55.1,17.39a76.6,76.6,0,0,1,27,49.64,89,89,0,0,1,66.39,15.17c17.14,12.36,28.18,30.12,30.3,48.73h0c3.29,28.81-14.65,58.86-44,74.58,23.93,31,23.56,75.58-1.57,101.54-13.92,14.4-34.55,21.95-56.6,20.73a83.48,83.48,0,0,1-58.26-28.59A80,80,0,0,1,123,334.85,78.16,78.16,0,0,1,110.9,335.79ZM86.13,86.58a77.06,77.06,0,0,0-50.68,18.63C21.79,117,13.32,133.1,12.21,149.43,10.34,176.74,28.77,204.36,57,216.6l4.12,1.78-2.49,3.73c-20.17,30.26-15.06,70.82,11.63,92.34,13.87,11.18,32.65,15.93,51.53,13a72.5,72.5,0,0,0,49.25-31.54l2.89-4.36,3.2,4.13a76,76,0,0,0,55.92,29.57c19.88,1.08,38.39-5.63,50.81-18.46,23.51-24.29,22.73-67-1.74-95.12l-3.24-3.73,4.48-2.11c29-13.65,47.09-42.07,44-69.1h0c-1.88-16.52-11.81-32.37-27.24-43.5-18.24-13.16-41.78-18-64.58-13.14l-4.22.88-.29-4.3a69.17,69.17,0,0,0-24.74-48.6c-14-11.77-32-17.48-49.49-15.66C122.07,16,95.68,47,96.74,83l.12,4.17-4.17-.33C90.49,86.66,88.3,86.58,86.13,86.58Z"/><path class="cls-1" d="M110.9,336.62a73,73,0,0,1-45.85-15.68C36.36,297.8,29.74,255.23,48.92,222c-28.7-14.57-47-44-45-73.13,1.27-18.53,10.79-36.74,26.12-50A85.54,85.54,0,0,1,88.42,78.28C89.69,40.12,118.51,8,156,4.12c19.71-2.05,40,4.36,55.72,17.58A77.39,77.39,0,0,1,238.86,71,89.76,89.76,0,0,1,305,86.47c17.33,12.5,28.5,30.47,30.65,49.31,3.29,28.86-14.44,58.95-43.58,74.95,23.57,31.25,23,75.82-2.23,101.86-14.09,14.56-35,22.19-57.25,21a84.24,84.24,0,0,1-58.16-28.1,80.91,80.91,0,0,1-51.36,30.22A79.93,79.93,0,0,1,110.9,336.62ZM86.13,87.42A76.21,76.21,0,0,0,36,105.84c-13.49,11.63-21.86,27.54-23,43.65-1.84,27,16.38,54.24,44.31,66.34l5,2.18-3,4.57c-19.92,29.9-14.89,70,11.47,91.22,13.68,11,32.23,15.7,50.87,12.82a71.67,71.67,0,0,0,48.68-31.18l3.54-5.33,3.91,5.06a75.21,75.21,0,0,0,55.31,29.24c19.63,1.09,37.91-5.54,50.15-18.2,23.22-24,22.43-66.15-1.76-94l-4-4.57,5.48-2.58c28.68-13.5,46.58-41.56,43.54-68.25h0c-1.86-16.28-11.66-31.92-26.9-42.91-18.05-13-41.34-17.76-63.92-13L230.58,82l-.36-5.26a68.36,68.36,0,0,0-24.44-48,65.9,65.9,0,0,0-48.86-15.47C122.6,16.81,96.53,47.44,97.57,83l.15,5.11-5.09-.4C90.45,87.5,88.28,87.42,86.13,87.42Z"/><path class="cls-1" d="M110.9,340.37a76.85,76.85,0,0,1-48.2-16.52C33.75,300.51,26,258,43.82,223.51,15.57,207.64-1.85,178,.16,148.61c1.33-19.53,11.32-38.68,27.4-52.55A89.44,89.44,0,0,1,84.87,74.51c3-38.62,32.82-70.17,70.71-74.12,20.71-2.15,42,4.57,58.52,18.44a81.51,81.51,0,0,1,27.89,48c23.22-2.65,46.8,3.32,65.22,16.61,18.18,13.12,29.91,32.05,32.18,51.93,3.3,29-13.4,59.27-41.85,76.55,22.18,32.58,20.28,77.18-5,103.28-14.84,15.34-36.77,23.38-60.15,22.11a87.4,87.4,0,0,1-57.78-26.16,84.2,84.2,0,0,1-63.73,29.23ZM86.13,82a81.93,81.93,0,0,0-53.67,19.75C17.88,114.31,8.83,131.58,7.63,149.12c-1.88,27.58,15.39,55.53,43,69.53l3.52,1.79-2,3.43C33.79,255.72,40.34,296.2,67.41,318a69.32,69.32,0,0,0,43.49,14.86,75.38,75.38,0,0,0,11.61-.9,76.71,76.71,0,0,0,49-28.82l2.76-3.55,3,3.35a80,80,0,0,0,55.58,26.86c21.21,1.17,41-6.07,54.35-19.84,23.66-24.45,24.51-67.05,1.93-97l-2.6-3.46,3.79-2.08c28-15.39,44.76-44,41.66-71.24-2-17.79-12.65-34.82-29.12-46.7C285,76.65,261.9,71.27,239.43,74.72l-3.78.59-.51-3.8a74.07,74.07,0,0,0-25.86-46.95C194.34,12,175.06,5.9,156.35,7.85c-35.37,3.68-63,34-64.19,70.55L92,82.12,88.32,82Q87.23,82,86.13,82ZM110.9,331.2a67.42,67.42,0,0,1-42.44-14.49C40.61,294.26,35.23,252,56.23,220.5l.55-.83-.92-.4c-29.36-12.72-48.51-41.52-46.56-70,1.17-17.1,10-33.95,24.25-46.22A81.11,81.11,0,0,1,92.92,83.94l.94.08,0-.94c-1.11-37.48,26.44-69.79,62.7-73.57,18.25-1.89,37.08,4.06,51.67,16.34A72.05,72.05,0,0,1,234,76.48l.06,1,.95-.2c23.61-5,48,0,66.88,13.63,16.09,11.61,26.46,28.2,28.43,45.53,3.22,28.25-15.56,57.89-45.66,72.06l-1,.47.73.83C309.77,239,310.5,283.47,286,308.82c-13,13.43-32.34,20.46-53.06,19.33a79,79,0,0,1-58.07-30.69l-.71-.92-.65,1A75,75,0,0,1,110.9,331.2Zm-24.77-240a73,73,0,0,0-47.69,17.52c-12.73,11-20.63,25.95-21.66,41.06C15,175.15,32.34,200.91,58.84,212.39l9.15,4-5.53,8.31C43.6,253,48.3,290.83,73.16,310.88c12.86,10.37,30.34,14.76,48,12a67.93,67.93,0,0,0,46.13-29.55l6.42-9.69,7.11,9.2a71.53,71.53,0,0,0,52.56,27.79c18.55,1,35.76-5.19,47.25-17.06,21.9-22.63,21.05-62.52-1.9-88.93l-7.22-8.31,10-4.69c27.24-12.83,44.27-39.32,41.4-64.43-1.73-15.24-11-29.93-25.37-40.31-17.18-12.39-39.4-16.9-60.95-12.37l-9.38,2L226.48,77a64.6,64.6,0,0,0-23.11-45.41c-13-11-29.82-16.31-46.07-14.61-32.38,3.37-57,32.31-56,65.89l.27,9.29-9.26-.74C90.27,91.25,88.18,91.16,86.13,91.16Z"/></g></g></svg>