<svg xmlns="http://www.w3.org/2000/svg" viewBox="0 0 365.89 365.88"><defs><style>.cls-1{fill:none;stroke:red;stroke-miterlimit:10;stroke-width:5px;}</style></defs><title>Element 9</title><g id="Layer_2" data-name="Layer 2"><g id="Homepage_Phone"><circle class="cls-1" cx="182.94" cy="182.94" r="36.13"/><path class="cls-1" d="M48.11,358.77a33.54,33.54,0,0,1-4.55-.3c-10.37-1.4-17.47-7.77-20-17.92C16.1,310.39,49.08,251,139.19,185.32,42.49,129.79,3.25,74.34,7.41,43.55c1.41-10.37,7.77-17.46,17.93-20,30.15-7.48,89.53,25.52,155.22,115.62,55.54-96.7,111-136,141.77-131.78,10.37,1.4,17.47,7.77,20,17.93,7.47,30.15-25.52,89.53-115.62,155.22,96.7,55.54,135.93,111,131.77,141.77-1.4,10.37-7.76,17.47-17.92,20C310.39,349.77,251,316.8,185.32,226.7,132.43,318.79,79.62,358.77,48.11,358.77ZM34.17,30.86a28.33,28.33,0,0,0-6.83.78c-6.82,1.69-10.75,6.07-11.69,13-1.86,13.78,8,34.15,27,55.88,23.72,27.1,60.46,55,106.25,80.73l5.71,3.21-5.32,3.8c-42.74,30.52-76.24,62.26-96.87,91.78-16.55,23.67-24.12,45-20.78,58.48,1.69,6.81,6.07,10.74,13,11.68,13.78,1.88,34.15-8,55.88-27,27.11-23.72,55-60.46,80.73-106.26l3.2-5.7,3.81,5.32c30.52,42.74,62.26,76.23,91.78,96.87,23.67,16.55,45,24.12,58.48,20.78,6.81-1.69,10.74-6.08,11.68-13,1.86-13.78-8-34.15-27-55.88-23.72-27.11-60.46-55-106.26-80.74l-5.7-3.2,5.32-3.8c42.74-30.53,76.23-62.27,96.87-91.78,16.55-23.67,24.12-45,20.78-58.48-1.69-6.82-6.08-10.75-13-11.69-13.78-1.86-34.15,8-55.88,27-27.11,23.72-55,60.46-80.73,106.25l-3.21,5.71-3.8-5.33c-30.53-42.73-62.26-76.23-91.78-96.87C65.83,38.44,47.52,30.86,34.17,30.86Z"/><path class="cls-1" d="M338,343.32c-31,5-88.84-28.49-152.62-115.75C129.85,324,74.36,363.1,43.49,358.94c-10.57-1.43-17.81-7.92-20.38-18.28-7.5-30.24,25.37-89.63,115.2-155.29C41.89,129.85,2.77,74.37,6.94,43.49c1.43-10.58,7.92-17.81,18.28-20.38,30.22-7.45,89.64,25.37,155.3,115.2C236,41.89,291.52,2.77,322.4,6.94c10.57,1.43,17.81,7.92,20.38,18.28,7.5,30.25-25.38,89.64-115.21,155.3C324,236,363.12,291.52,359,322.4c-1.43,10.57-7.93,17.81-18.29,20.38C339.8,343,338.9,343.18,338,343.32ZM184.44,210.39l4.24,5.93c68.82,96.35,127.3,123,149.75,117.46,6.61-1.63,10.42-5.88,11.33-12.63,3.1-23-29.76-78.16-133-136.13l-6.36-3.57,5.93-4.24c96.36-68.82,123-127.27,117.46-149.76-1.63-6.6-5.88-10.41-12.63-11.32C298.2,13,243,45.88,185,149.14l-3.57,6.36-4.24-5.94C108.39,53.21,50,26.58,27.45,32.1,20.85,33.74,17,38,16.13,44.73c-3.11,23,29.76,78.17,133,136.13l6.36,3.58-5.94,4.24C53.21,257.5,26.53,315.94,32.1,338.44c1.64,6.6,5.89,10.41,12.63,11.32,23,3.11,78.17-29.76,136.14-133Z"/><path class="cls-1" d="M47.89,363.38a35.81,35.81,0,0,1-5-.32c-12.21-1.65-20.9-9.44-23.87-21.4C12,313.16,37.24,255.51,130.76,185.78,30.22,126.61-1.11,72,2.82,42.94,4.47,30.73,12.27,22,24.22,19.07c28.52-7,86.19,18.22,155.88,111.69C239.28,30.22,293.88-1.09,323,2.82c12.2,1.65,20.9,9.45,23.86,21.4,7.07,28.5-18.16,86.16-111.68,155.88C335.66,239.27,367,293.85,363.06,323c-1.64,12.2-9.44,20.9-21.4,23.86-1,.25-2,.45-3,.62h0C310,352.07,253,325.26,185.78,235.13,129.83,330.2,78,363.38,47.89,363.38ZM34.42,26.21a34.19,34.19,0,0,0-8.2.93c-8.71,2.16-14,8-15.16,16.91C7.12,73.26,45.57,127.17,140.39,181.77l5.54,3.19-5.16,3.77C52.44,253.29,20.05,311.05,27.14,339.66c2.16,8.72,8,14,16.91,15.16,29.23,4,83.13-34.53,137.72-129.32L185,220l3.77,5.16c62.37,85.34,119.59,118.81,148.59,114.1h0c.8-.13,1.59-.29,2.34-.48,8.72-2.16,14-8,15.17-16.9,3.94-29.21-34.52-83.12-129.33-137.72L220,180.93l5.16-3.77C313.45,112.6,345.83,54.83,338.74,26.22c-2.16-8.71-8-14-16.9-15.16-29.2-4-83.12,34.51-137.72,129.33l-3.19,5.54-3.77-5.16C118.3,60.24,65.06,26.21,34.42,26.21ZM47.89,354.12a27.87,27.87,0,0,1-3.71-.24c-8.48-1.15-14-6.14-16.11-14.44-3.52-14.21,4.18-36.4,21.12-60.88,20.88-30.16,54.75-62.41,98-93.27l.61-.43-.66-.37c-46.29-26-83.46-54.38-107.49-82.09C20.11,79.9,10.05,58.68,12,44.18c1.14-8.48,6.14-14,14.44-16.11,14.23-3.49,36.42,4.21,60.88,21.14,30.16,20.87,62.41,54.74,93.26,97.94l.44.61.37-.66c26-46.29,54.38-83.47,82.1-107.5C286,20.1,307.22,10,321.71,12c8.48,1.14,14.05,6.14,16.11,14.44,3.52,14.21-4.18,36.4-21.12,60.87-20.88,30.16-54.76,62.41-98,93.27l-.61.44.66.36c46.29,26,83.46,54.38,107.49,82.1,19.5,22.49,29.56,43.71,27.6,58.22-1.15,8.48-6.14,14.05-14.45,16.11-14.2,3.51-36.38-4.2-60.85-21.14-30.18-20.88-62.44-54.75-93.29-97.94l-.43-.61-.37.65c-26,46.3-54.38,83.47-82.1,107.5C81.75,344.17,62.18,354.12,47.89,354.12ZM33.76,35.56a22.63,22.63,0,0,0-5.32.58c-4.91,1.22-7.52,4.13-8.2,9.15-2.83,21,30.2,75.4,130.93,132L163.24,184l-11.26,8C58,259.2,31,316.86,36.14,337.43c1.22,4.92,4.13,7.53,9.15,8.21,21,2.88,75.4-30.19,132-130.93L184,202.65l8.05,11.26c67.12,94,124.79,120.91,145.38,115.84,4.91-1.22,7.52-4.13,8.2-9.15,2.84-21-30.2-75.41-130.92-132l-12.07-6.77,11.26-8C307.91,106.69,334.85,49,329.75,28.45c-1.22-4.92-4.13-7.53-9.15-8.2-21-2.87-75.4,30.18-132,130.92l-6.78,12.07-8-11.26C111.83,65.18,57.85,35.56,33.76,35.56Z"/></g></g></svg>