<svg xmlns="http://www.w3.org/2000/svg" viewBox="0 0 360.39 360.39"><defs><style>.cls-1{fill:red;}</style></defs><title>Element 10</title><g id="Layer_2" data-name="Layer 2"><g id="Homepage_Phone"><path class="cls-1" d="M180.19,8.89A171.31,171.31,0,1,0,351.5,180.19,171.32,171.32,0,0,0,180.19,8.89Zm55.54,226.83h-111v-111H235.72Z"/><path class="cls-1" d="M180.2,355.42A175.22,175.22,0,0,1,56.29,56.31,174,174,0,0,1,180.19,5V5C276.8,5,355.41,83.57,355.42,180.19S276.83,355.41,180.21,355.42Zm0-342.61h0A167.39,167.39,0,0,0,61.85,298.57a166.27,166.27,0,0,0,118.35,49h0c92.3,0,167.38-75.1,167.38-167.39S272.49,12.81,180.2,12.81ZM120.76,239.65V120.76H239.64V239.64Zm7.83-111.06V231.81H231.81V128.59Z"/><path class="cls-1" d="M180.21,356.48C83,356.48,3.93,277.41,3.92,180.21S83,3.92,180.19,3.92v0h0A176.28,176.28,0,0,1,304.86,304.84,175.2,175.2,0,0,1,180.21,356.48Zm0-342.61h0C88.47,13.88,13.86,88.5,13.87,180.21S88.49,346.52,180.2,346.53h0A166.33,166.33,0,0,0,297.8,62.58,165.23,165.23,0,0,0,180.2,13.87ZM119.7,240.7v-121h121v121Zm9.94-111v101.1h101.1V129.64Z"/><path class="cls-1" d="M180.21,360.39C80.85,360.4,0,279.57,0,180.21,0,82.16,78.71,2.14,176.27,0V0l7.83,0A180.21,180.21,0,0,1,307.63,307.61a179,179,0,0,1-127.42,52.78ZM176.27,7.88C83,10,7.83,86.48,7.83,180.21c0,95,77.33,172.35,172.37,172.35h0A172.36,172.36,0,0,0,302.07,58.31a171.14,171.14,0,0,0-118-50.43v1h-7.83Zm3.94,342.56C86.33,350.44,10,274.08,10,180.21S86.31,10,180.19,10h0A170.25,170.25,0,0,1,300.59,300.57,169.11,169.11,0,0,1,180.21,350.44Zm0-332.65c-89.56,0-162.41,72.87-162.4,162.42s72.86,162.4,162.41,162.4A162.41,162.41,0,0,0,295,65.35,161.33,161.33,0,0,0,180.2,17.79ZM115.78,244.62V115.78H244.61V244.61Zm7.83-121V236.79H236.79V123.61Zm2.12,111V125.73H234.66V234.66Zm7.83-101.1v93.27h93.27V133.56Z"/></g></g></svg>